# xmcd CD database file
#
# Track frame offsets:
#	225
#	18284
#	30149
#	40721
#	58943
#	69335
#	89002
#	106635
#	121568
#	136909
#	152377
#	162377
#	178594
#	194048
#	203833
#	219659
#
# Disc length: 3083 seconds
#
# Revision: 0
# Processed by: cddbd v1.4PL0 Copyright (c) Steve Scherf et al.
# Submitted via: CDex 1.50beta8
#
DISCID=ce0c0810
DTITLE=Santa Claus Jazzband - Creole Christmas
DYEAR=1900
DGENRE=Jazz
TTITLE0=Christmas Night
TTITLE1=Winter Wonderland
TTITLE2=Silent Night
TTITLE3=Weihnachtsglöckchen
TTITLE4=Christmastime In New Orleans
TTITLE5=Jinglein'  Xmas
TTITLE6=Weihnachtszeit
TTITLE7=Am Weihnachtsabend
TTITLE8=Salvation Army Christmas Waltz
TTITLE9=Creole Christmas
TTITLE10=Wild Christmas (White Christmas)
TTITLE11=Nikolaus Abend
TTITLE12=Merry Christmas Blues
TTITLE13=Leise rieselt der Schnee
TTITLE14=Crazy Christmas
TTITLE15=Amazing Grace
EXTD=
EXTT0=
EXTT1=
EXTT2=
EXTT3=
EXTT4=
EXTT5=
EXTT6=
EXTT7=
EXTT8=
EXTT9=
EXTT10=
EXTT11=
EXTT12=
EXTT13=
EXTT14=
EXTT15=
PLAYORDER=
